<svg xmlns="http://www.w3.org/2000/svg" viewBox="0 0 230.638 283.791">
  <path d="M39.727 283.291a39.278 39.278 0 01-28.947-12.758A39.288 39.288 0 01.689 240.549L17.367 87.806a9.784 9.784 0 019.761-8.918h29.4V59.294A58.864 58.864 0 01115.318.5a58.481 58.481 0 0141.624 17.167 58.466 58.466 0 0117.167 41.627v19.594h29.4a9.82 9.82 0 019.779 8.918l16.674 152.743a39.355 39.355 0 01-10.091 29.984 39.265 39.265 0 01-28.947 12.758zm-19.5-40.976a19.318 19.318 0 005.035 14.99 19.362 19.362 0 0014.464 6.388h151.173a19.448 19.448 0 0014.482-6.37 19.34 19.34 0 005.034-14.99L194.543 98.486H36.081zM76.116 59.294v19.594h78.393V59.294a38.921 38.921 0 00-11.427-27.77 39.028 39.028 0 00-27.77-11.426 39.235 39.235 0 00-39.196 39.196zm20.907 163.8a46.865 46.865 0 01-14.941-10.073 46.854 46.854 0 01-10.073-14.939 46.751 46.751 0 01-3.692-18.3 46.733 46.733 0 013.692-18.293 46.894 46.894 0 0110.073-14.939 46.94 46.94 0 0114.941-10.073 46.753 46.753 0 0118.3-3.692 46.715 46.715 0 0118.292 3.692 46.858 46.858 0 0114.942 10.073 46.846 46.846 0 0110.073 14.939 46.733 46.733 0 013.692 18.293 46.751 46.751 0 01-3.692 18.3 46.806 46.806 0 01-10.073 14.939 46.8 46.8 0 01-14.942 10.073 46.653 46.653 0 01-18.292 3.7 46.69 46.69 0 01-18.296-3.698zm-11.19-30.852a31.946 31.946 0 006.858 10.172 31.932 31.932 0 0010.173 6.859 31.794 31.794 0 0012.456 2.516 31.8 31.8 0 0012.46-2.516 31.922 31.922 0 0010.164-6.859 31.861 31.861 0 006.859-10.172 31.7 31.7 0 001.508-4.454H84.325a31.7 31.7 0 001.508 4.456zm17.031-41.94a31.992 31.992 0 00-10.173 6.859 31.947 31.947 0 00-6.858 10.172 31.7 31.7 0 00-1.508 4.454h61.99a31.345 31.345 0 00-1.512-4.454 31.9 31.9 0 00-6.859-10.172 31.922 31.922 0 00-10.164-6.859 31.865 31.865 0 00-12.46-2.512 31.856 31.856 0 00-12.456 2.511zM76.116 98.484h0z"/>
</svg>
