<svg xmlns="http://www.w3.org/2000/svg" viewBox="0 0 87.354 89.823">
  <path d="M83.2212 32.3306A38.158 38.158 0 0076.646 18.584a36.7294 36.7294 0 00-11.3111-9.92A37.5452 37.5452 0 0050.3517 3.993a40.2916 40.2916 0 00-15.9995 1.7247 43.274 43.274 0 00-14.0456 7.5044A45.0906 45.0906 0 009.6658 25.3395a44.9587 44.9587 0 00-5.2904 13.2642l1.4793-.0003c2.0097-7.6917 7.0892-14.52 14.5062-19.4532a44.4618 44.4618 0 0128.7038-6.9617c10.2519.9758 19.3776 5.2845 25.6859 12.1361A29.034 29.034 0 0182.575 48.38l-.1321.8576c-1.4895 8.6755-6.8335 16.4412-15.038 21.8766a44.3258 44.3258 0 01-28.693 6.9747c-10.2517-.9768-19.3776-5.2835-25.6969-12.136A30.4367 30.4367 0 014.6935 44.923l-1.3534 3.9012a39.6628 39.6628 0 001.2149 9.1285 38.327 38.327 0 006.563 13.7465 36.8703 36.8703 0 0011.3232 9.9211 37.5472 37.5472 0 0014.9831 4.6718 40.5176 40.5176 0 0015.9995-1.7246 43.3 43.3 0 0014.046-7.5104 45.0127 45.0127 0 0010.6299-12.1183 44.1758 44.1758 0 005.7614-15.5543l.1342-.8805a41.0605 41.0605 0 00-.7741-16.1734z"/>
</svg>
