<svg xmlns="http://www.w3.org/2000/svg" viewBox="0 0 22.5 22.5">
  <path fill="#fbbb00" d="M4.986 13.597L4.2 16.52l-2.863.061a11.27 11.27 0 01-.083-10.505l2.548.467 1.116 2.533a6.714 6.714 0 00.063 4.52z"/>
  <path fill="#518ef8" d="M22.303 9.148a11.246 11.246 0 01-4.01 10.875l-3.21-.164-.454-2.836a6.7 6.7 0 002.885-3.424h-6.016V9.148h10.806z"/>
  <path fill="#28b446" d="M18.292 20.022A11.253 11.253 0 011.34 16.58l3.646-2.984a6.691 6.691 0 009.642 3.426z"/>
  <path fill="#f14336" d="M18.434 2.59l-3.648 2.984a6.69 6.69 0 00-9.863 3.5l-3.665-3A11.252 11.252 0 0118.434 2.59z"/>
</svg>
