<svg xmlns="http://www.w3.org/2000/svg" viewBox="0 0 512 511.99">
  <path d="M505.017 218.872L272.571 7.558l-2.221-2.019a21.334 21.334 0 00-4.973-3.381c-.079-.038-.161-.066-.24-.1a21.359 21.359 0 00-18.276 0c-.079.037-.161.065-.24.1a21.334 21.334 0 00-4.973 3.381l-2.189 1.99L6.983 218.872a21.334 21.334 0 1028.7 31.571l6.983-6.348v246.563A21.333 21.333 0 0064 511.991h384a21.333 21.333 0 0021.333-21.333V244.091l6.983 6.348a21.334 21.334 0 0028.7-31.571zM213.333 469.325v-128a42.667 42.667 0 0185.334 0v128zm213.334 0h-85.333v-128a85.3335 85.3335 0 10-170.667 0v128H85.333V205.311L256 50.156l170.667 155.155z"/>
</svg>
