<!-- Generated by IcoMoon.io -->
<svg version="1.1" xmlns="http://www.w3.org/2000/svg" viewBox="0 0 24 24">
<title>instagram</title>
<path d="M12 2.161c3.206 0 3.586 0.014 4.846 0.071 1.172 0.052 1.805 0.248 2.227 0.413 0.558 0.216 0.961 0.478 1.378 0.895 0.422 0.422 0.679 0.821 0.9 1.379 0.164 0.422 0.361 1.059 0.413 2.227 0.056 1.266 0.071 1.645 0.071 4.847s-0.014 3.586-0.071 4.847c-0.052 1.172-0.248 1.804-0.413 2.227-0.216 0.558-0.478 0.961-0.895 1.378-0.422 0.422-0.821 0.68-1.378 0.9-0.422 0.164-1.060 0.361-2.227 0.412-1.266 0.056-1.645 0.071-4.847 0.071s-3.586-0.014-4.847-0.071c-1.172-0.052-1.804-0.248-2.227-0.412-0.558-0.216-0.961-0.478-1.378-0.896-0.422-0.422-0.679-0.82-0.9-1.378-0.164-0.422-0.361-1.060-0.413-2.227-0.056-1.266-0.070-1.646-0.070-4.847s0.014-3.586 0.070-4.847c0.052-1.172 0.248-1.804 0.413-2.227 0.216-0.558 0.478-0.961 0.895-1.378 0.422-0.422 0.821-0.679 1.378-0.9 0.422-0.164 1.059-0.361 2.227-0.413 1.261-0.056 1.641-0.070 4.847-0.070zM12 0c-3.258 0-3.665 0.014-4.946 0.071-1.275 0.056-2.152 0.262-2.911 0.558-0.792 0.309-1.463 0.717-2.128 1.388-0.671 0.666-1.078 1.336-1.387 2.123-0.295 0.764-0.502 1.636-0.558 2.911-0.056 1.285-0.071 1.692-0.071 4.95s0.014 3.665 0.071 4.946c0.056 1.275 0.263 2.152 0.558 2.911 0.31 0.792 0.717 1.462 1.387 2.128 0.665 0.665 1.336 1.078 2.123 1.383 0.764 0.296 1.636 0.502 2.911 0.558 1.28 0.056 1.688 0.071 4.946 0.071s3.666-0.014 4.946-0.071c1.275-0.056 2.152-0.262 2.911-0.558 0.787-0.304 1.458-0.717 2.123-1.383s1.078-1.336 1.383-2.123c0.296-0.764 0.502-1.636 0.558-2.911 0.056-1.28 0.071-1.688 0.071-4.946s-0.014-3.665-0.071-4.946c-0.056-1.275-0.262-2.152-0.558-2.911-0.295-0.797-0.703-1.467-1.373-2.133-0.665-0.665-1.336-1.078-2.123-1.383-0.764-0.295-1.636-0.502-2.911-0.558-1.284-0.061-1.692-0.075-4.95-0.075v0z"></path>
<path d="M12 5.836c-3.403 0-6.164 2.761-6.164 6.164s2.761 6.164 6.164 6.164 6.164-2.761 6.164-6.164c0-3.403-2.761-6.164-6.164-6.164zM12 15.998c-2.208 0-3.998-1.79-3.998-3.998s1.79-3.998 3.998-3.998c2.208 0 3.998 1.79 3.998 3.998s-1.79 3.998-3.998 3.998z"></path>
<path d="M19.846 5.592c0 0.795-0.644 1.439-1.439 1.439s-1.439-0.644-1.439-1.439c0-0.795 0.644-1.439 1.439-1.439s1.439 0.644 1.439 1.439z"></path>
</svg>
