<svg xmlns="http://www.w3.org/2000/svg" viewBox="0 0 30 30">
  <path d="M14.985 0A15 15 0 1030 15 14.993 14.993 0 0014.985 0zm10.4 9h-4.43a23.474 23.474 0 00-2.07-5.34A12.044 12.044 0 0125.38 9zM15 3.06A21.13 21.13 0 0117.865 9h-5.73A21.13 21.13 0 0115 3.06zM3.39 18a11.733 11.733 0 010-6h5.07a24.773 24.773 0 00-.21 3 24.773 24.773 0 00.21 3zm1.23 3h4.425a23.474 23.474 0 002.07 5.34A11.98 11.98 0 014.62 21zM9.045 9H4.62a11.98 11.98 0 016.495-5.34A23.474 23.474 0 009.045 9zM15 26.94A21.13 21.13 0 0112.135 21h5.73A21.13 21.13 0 0115 26.94zM18.51 18h-7.02a22.069 22.069 0 01-.24-3 21.877 21.877 0 01.24-3h7.02a21.877 21.877 0 01.24 3 22.069 22.069 0 01-.24 3zm.375 8.34a23.474 23.474 0 002.07-5.34h4.425a12.044 12.044 0 01-6.495 5.34zM21.54 18a24.773 24.773 0 00.21-3 24.773 24.773 0 00-.21-3h5.07a11.733 11.733 0 010 6z"/>
</svg>
