<svg xmlns="http://www.w3.org/2000/svg" viewBox="0 0 145.428 30.676">
  <path d="M118.078 15.789c0-7.945 6.01-14.377 13.424-14.377s13.425 6.432 13.425 14.377-6.01 14.387-13.425 14.387-13.424-6.442-13.424-14.387zm6.814-5.484a.019.019 0 01-.01.016c-.1.229-1.782 3.967-4.517 5.469 2.735 1.5 4.42 5.24 4.517 5.469a.019.019 0 01.01.016c1.156 4.451 3.682 7.537 6.61 7.537s5.454-3.086 6.615-7.537a.027.027 0 01.005-.016c.1-.229 1.782-3.967 4.522-5.469-2.74-1.5-4.42-5.24-4.522-5.469a.027.027 0 01-.005-.016c-1.161-4.451-3.682-7.537-6.615-7.537s-5.453 3.085-6.609 7.536zm-18.583 19.871H99.2v-.006h-5.383a4.266 4.266 0 00.947-2.551c0-1.471-.632-10.078 2.551-11.83-3.183-1.752-2.551-10.359-2.551-11.826a4.27 4.27 0 00-.947-2.555h20.075v6.543h-.352s-2.1-5.668-13.562-5.668v13.693s2.108-2.592 6.167-.957 5.6.516 5.6.516a4.622 4.622 0 01-5.622 2.469c-3.035-.742-3.667-2.027-6.147-2.027v9.121a21.124 21.124 0 00.092 2.2h9.233a4.627 4.627 0 004.094-2.4 2.715 2.715 0 00.143-.295h.352v5.576zM26.858 15.789c0-7.945 6.01-14.377 13.429-14.377s13.419 6.432 13.419 14.377-6.01 14.387-13.419 14.387-13.429-6.442-13.429-14.387zm6.814-5.484a.019.019 0 01-.01.016c-.1.229-1.782 3.967-4.517 5.469 2.735 1.5 4.421 5.24 4.517 5.469a.019.019 0 01.01.016c1.156 4.451 3.682 7.537 6.615 7.537s5.449-3.086 6.61-7.537a.019.019 0 01.01-.016c.1-.229 1.777-3.967 4.517-5.469-2.74-1.5-4.42-5.24-4.517-5.469a.019.019 0 01-.01-.016c-1.161-4.451-3.682-7.537-6.61-7.537s-5.459 3.085-6.615 7.536zM85.424 30.17h-5.719c.886-1.1 1.049-2.852 1.049-5.076V2.926L71.587 27.61 62.542 2.829v22.266c0 2.225.163 3.977 1.049 5.076h-4.904c.881-1.1 1.049-2.852 1.049-5.076V6.482c0-2.221-.168-3.979-1.049-5.072h2.7v-.006h5.4l5.974 16.658 5.953-16.658h3.881v.006h3.875c-.886 1.094-1.049 2.852-1.049 5.072v18.613c0 2.225.163 3.977 1.049 5.076zm-61.393 0h-6.33c.346-1.1-.352-2.852-1.447-5.076l-4.634-9.3H7.255v9.309c0 2.221.168 3.979 1.049 5.068H1.098a4.264 4.264 0 00.942-2.551c0-1.473-.626-10.074 2.557-11.826C1.414 14.042 2.04 5.431 2.04 3.968a4.309 4.309 0 00-.942-2.561h13.7a7.249 7.249 0 015.123 2.107 7.144 7.144 0 012.124 5.088 7.222 7.222 0 01-7.247 7.191h-1.93a6.552 6.552 0 015.836 3.627l2.832 5.678a13.959 13.959 0 003.544 5.076zM7.256 14.842h3.56a6.3 6.3 0 100-12.6h-3.56z"/>
</svg>
