<svg xmlns="http://www.w3.org/2000/svg" viewBox="0 0 66.538 71.866">
  <path fill="#fc0" d="M9.745 62.124A33.053 33.053 0 010 38.598a33.032 33.032 0 016.219-19.364A33.146 33.146 0 0122.082 7.259a2.106 2.106 0 012.691 1.276 2.106 2.106 0 01-1.276 2.691A28.96 28.96 0 009.64 21.684a28.86 28.86 0 00-5.428 16.913 29.091 29.091 0 0029.059 29.056 29.089 29.089 0 0029.057-29.056A29.108 29.108 0 0038.904 10.09l1.188 1.188a2.105 2.105 0 010 2.977 2.1 2.1 0 01-1.49.618 2.1 2.1 0 01-1.487-.618l-5.333-5.333a2.105 2.105 0 010-2.977l5.333-5.33a2.105 2.105 0 012.978 0 2.105 2.105 0 010 2.977l-2.072 2.073a33.01 33.01 0 0118.775 9.409 33.049 33.049 0 019.744 23.523 33.043 33.043 0 01-9.744 23.523 33.049 33.049 0 01-23.523 9.745 33.064 33.064 0 01-23.528-9.741zm21.141-10.87v-.681a9.2 9.2 0 01-4.1-1.642 2.257 2.257 0 01-.654-3.125 2.258 2.258 0 013.129-.655 5.33 5.33 0 003.869 1.01 3.111 3.111 0 003.086-2.622 2.3 2.3 0 00-1.694-2.727 22.321 22.321 0 01-6.136-2.954 5.8 5.8 0 01-1.935-5.711 6.469 6.469 0 014.435-5.066v-.747a2.262 2.262 0 012.26-2.26 2.262 2.262 0 012.261 2.26v.605a8.265 8.265 0 012.868 1.332 2.258 2.258 0 01.458 3.162 2.259 2.259 0 01-3.162.457 3.725 3.725 0 00-3.372-.487 2 2 0 00-1.306 1.579 1.428 1.428 0 00.282 1.319 19.218 19.218 0 004.853 2.25 6.834 6.834 0 014.643 7.738 7.749 7.749 0 01-2.389 4.405 7.362 7.362 0 01-2.875 1.648v.911a2.26 2.26 0 01-2.261 2.257 2.259 2.259 0 01-2.261-2.256z"/>
</svg>
