<svg xmlns="http://www.w3.org/2000/svg" viewBox="0 0 75.968 68.249">
  <path  d="M42.619 62.559a24.8 24.8 0 01-6.939-12.114H4.437a4.438 4.438 0 01-4.434-4.433V4.432A4.438 4.438 0 014.437-.001h67.1a4.438 4.438 0 014.434 4.433v41.58a4.438 4.438 0 01-4.434 4.433h-2.2a24.817 24.817 0 01-6.936 12.114c-3.823 3.714-8.2 5.689-9.894 5.689s-6.071-1.974-9.888-5.689zm-4.665-25.5v7.306a21.9 21.9 0 006.64 15.974c3.588 3.527 7.271 4.9 7.919 4.94.644-.041 4.327-1.413 7.919-4.94a21.9 21.9 0 006.636-15.974v-7.31a68.611 68.611 0 01-14.555-6.156 66.319 66.319 0 01-14.561 6.16zm15.308-9.152a65.454 65.454 0 0015.678 6.595 1.479 1.479 0 011.1 1.43v8.433a27.653 27.653 0 01-.177 3.112h1.678a1.465 1.465 0 001.464-1.464V20.771H2.976v25.242a1.466 1.466 0 001.465 1.464H35.17a26.764 26.764 0 01-.177-3.112v-8.433a1.479 1.479 0 011.1-1.43 63.6 63.6 0 0015.675-6.595 1.5 1.5 0 01.753-.2 1.476 1.476 0 01.738.2zm-50.29-10.1h70.029v-5.934H2.972zm0-13.37v4.467h70.029V4.437a1.466 1.466 0 00-1.464-1.467h-67.1a1.467 1.467 0 00-1.468 1.463zm48.183 56.779a1.48 1.48 0 01.759-1.954l.045-.02a1.485 1.485 0 011.975.712 1.487 1.487 0 01-.716 1.975c-.033.017-.071.031-.105.048a1.488 1.488 0 01-.6.126 1.486 1.486 0 01-1.361-.892zm4.034-2.2a1.481 1.481 0 01.17-2.09 18.494 18.494 0 001.451-1.365 16.533 16.533 0 001.521-1.886 1.486 1.486 0 012.066-.375 1.487 1.487 0 01.375 2.067 20.057 20.057 0 01-1.795 2.22 20.471 20.471 0 01-1.7 1.6 1.491 1.491 0 01-.96.354 1.476 1.476 0 01-1.131-.529zm-5.614-6.979l-5.205-5.206a1.476 1.476 0 010-2.1 1.477 1.477 0 012.1 0l4.157 4.157 7.937-7.933a1.477 1.477 0 012.1 0 1.483 1.483 0 010 2.1l-8.984 8.981a1.48 1.48 0 01-1.049.436 1.476 1.476 0 01-1.059-.44zm-34.362-8.049a6.6 6.6 0 01-2.6.528 6.686 6.686 0 01-6.677-6.68 6.685 6.685 0 016.677-6.676 6.6 6.6 0 012.6.528 6.7 6.7 0 012.594-.528 6.686 6.686 0 016.68 6.676 6.687 6.687 0 01-6.68 6.68 6.7 6.7 0 01-2.598-.532zm-6.306-6.152a3.715 3.715 0 003.708 3.711 3.715 3.715 0 003.711-3.711 3.715 3.715 0 00-3.711-3.708 3.714 3.714 0 00-3.711 3.704zm10.384 0a6.63 6.63 0 01-1.116 3.691 3.71 3.71 0 003.343-3.691 3.709 3.709 0 00-3.34-3.687 6.649 6.649 0 011.11 3.683zm.079-10.384a1.484 1.484 0 01-1.485-1.484 1.484 1.484 0 011.485-1.484h.071a1.483 1.483 0 011.48 1.484 1.483 1.483 0 01-1.48 1.484zm-11.947 0a1.484 1.484 0 01-1.484-1.484 1.484 1.484 0 011.484-1.484h7.633a1.483 1.483 0 011.484 1.484 1.483 1.483 0 01-1.484 1.484z"/>
</svg>
