<svg xmlns="http://www.w3.org/2000/svg" viewBox="0 0 20.001 20">
  <path fill="#1d1d1d" d="M10 20a10 10 0 1110-10 10.011 10.011 0 01-10 10zm.01-5.691l-4.16 2.51a7.891 7.891 0 008.32-.01l-4.161-2.5zM2.24 8.14A7.667 7.667 0 002.01 10a7.976 7.976 0 002.91 6.169l1.11-4.75-3.79-3.28zm15.54 0l-3.79 3.28 1.11 4.75A8 8 0 0018.01 10a8.13 8.13 0 00-.229-1.86zm-7.77 3.839l2.4 1.441-.64-2.731 2.11-1.83-2.779-.24L10.01 6.06 8.92 8.63l-2.78.24 2.111 1.83-.63 2.721 2.389-1.441zM9.55 2.02a8.015 8.015 0 00-7.02 5.15l5.02-.43 2-4.72zm.921 0l2 4.71 5.009.43a8.032 8.032 0 00-7.009-5.14z"/>
</svg>
